<mxfile host="app.diagrams.net" modified="2024-06-10T13:32:34.909Z" agent="Mozilla/5.0 (Macintosh; Intel Mac OS X 10_15_7) AppleWebKit/537.36 (KHTML, like Gecko) Chrome/124.0.0.0 Safari/537.36" etag="bY9v41O3YcghL2fHVbHG" version="24.5.2" type="device">
  <diagram id="C5RBs43oDa-KdzZeNtuy" name="Page-1">
    <mxGraphModel dx="954" dy="1661" grid="1" gridSize="10" guides="1" tooltips="1" connect="1" arrows="1" fold="1" page="1" pageScale="1" pageWidth="827" pageHeight="1169" math="0" shadow="0">
      <root>
        <mxCell id="WIyWlLk6GJQsqaUBKTNV-0" />
        <mxCell id="WIyWlLk6GJQsqaUBKTNV-1" parent="WIyWlLk6GJQsqaUBKTNV-0" />
        <mxCell id="zkfFHV4jXpPFQw0GAbJ--6" value="User" style="swimlane;fontStyle=0;align=center;verticalAlign=top;childLayout=stackLayout;horizontal=1;startSize=26;horizontalStack=0;resizeParent=1;resizeLast=0;collapsible=1;marginBottom=0;rounded=0;shadow=0;strokeWidth=1;" parent="WIyWlLk6GJQsqaUBKTNV-1" vertex="1">
          <mxGeometry x="60" y="242" width="183" height="224" as="geometry">
            <mxRectangle x="130" y="380" width="160" height="26" as="alternateBounds" />
          </mxGeometry>
        </mxCell>
        <mxCell id="zkfFHV4jXpPFQw0GAbJ--7" value="- name : String" style="text;align=left;verticalAlign=top;spacingLeft=4;spacingRight=4;overflow=hidden;rotatable=0;points=[[0,0.5],[1,0.5]];portConstraint=eastwest;" parent="zkfFHV4jXpPFQw0GAbJ--6" vertex="1">
          <mxGeometry y="26" width="183" height="26" as="geometry" />
        </mxCell>
        <mxCell id="zkfFHV4jXpPFQw0GAbJ--8" value="- age : INT&#xa;&#xa;- location : String&#xa;&#xa;- biography : String&#xa;&#xa;- bookings: ArrayList &lt; Booking&gt;&#xa;&#xa;- hobbies : ArrayList &lt;Hobby&gt;&#xa;" style="text;align=left;verticalAlign=top;spacingLeft=4;spacingRight=4;overflow=hidden;rotatable=0;points=[[0,0.5],[1,0.5]];portConstraint=eastwest;rounded=0;shadow=0;html=0;" parent="zkfFHV4jXpPFQw0GAbJ--6" vertex="1">
          <mxGeometry y="52" width="183" height="138" as="geometry" />
        </mxCell>
        <mxCell id="zkfFHV4jXpPFQw0GAbJ--9" value="" style="line;html=1;strokeWidth=1;align=left;verticalAlign=middle;spacingTop=-1;spacingLeft=3;spacingRight=3;rotatable=0;labelPosition=right;points=[];portConstraint=eastwest;" parent="zkfFHV4jXpPFQw0GAbJ--6" vertex="1">
          <mxGeometry y="190" width="183" height="8" as="geometry" />
        </mxCell>
        <mxCell id="xKjSnDcMdYcUZBjSQ_FL-36" value="+ getters &amp; setters" style="text;align=left;verticalAlign=top;spacingLeft=4;spacingRight=4;overflow=hidden;rotatable=0;points=[[0,0.5],[1,0.5]];portConstraint=eastwest;" vertex="1" parent="zkfFHV4jXpPFQw0GAbJ--6">
          <mxGeometry y="198" width="183" height="26" as="geometry" />
        </mxCell>
        <mxCell id="xKjSnDcMdYcUZBjSQ_FL-1" value="Venue" style="swimlane;fontStyle=0;align=center;verticalAlign=top;childLayout=stackLayout;horizontal=1;startSize=26;horizontalStack=0;resizeParent=1;resizeLast=0;collapsible=1;marginBottom=0;rounded=0;shadow=0;strokeWidth=1;" vertex="1" parent="WIyWlLk6GJQsqaUBKTNV-1">
          <mxGeometry x="80" y="740" width="190" height="210" as="geometry">
            <mxRectangle x="130" y="380" width="160" height="26" as="alternateBounds" />
          </mxGeometry>
        </mxCell>
        <mxCell id="xKjSnDcMdYcUZBjSQ_FL-3" value="- name : String&#xa;&#xa;- location : String&#xa;&#xa;- capacity: INT&#xa;&#xa;- bookings: ArrayList &lt;Booking&gt;" style="text;align=left;verticalAlign=top;spacingLeft=4;spacingRight=4;overflow=hidden;rotatable=0;points=[[0,0.5],[1,0.5]];portConstraint=eastwest;rounded=0;shadow=0;html=0;" vertex="1" parent="xKjSnDcMdYcUZBjSQ_FL-1">
          <mxGeometry y="26" width="190" height="114" as="geometry" />
        </mxCell>
        <mxCell id="xKjSnDcMdYcUZBjSQ_FL-6" value="" style="line;html=1;strokeWidth=1;align=left;verticalAlign=middle;spacingTop=-1;spacingLeft=3;spacingRight=3;rotatable=0;labelPosition=right;points=[];portConstraint=eastwest;" vertex="1" parent="xKjSnDcMdYcUZBjSQ_FL-1">
          <mxGeometry y="140" width="190" height="8" as="geometry" />
        </mxCell>
        <mxCell id="xKjSnDcMdYcUZBjSQ_FL-18" value="+ boolean hasCapacity();" style="text;align=left;verticalAlign=top;spacingLeft=4;spacingRight=4;overflow=hidden;rotatable=0;points=[[0,0.5],[1,0.5]];portConstraint=eastwest;rounded=0;shadow=0;html=0;" vertex="1" parent="xKjSnDcMdYcUZBjSQ_FL-1">
          <mxGeometry y="148" width="190" height="58" as="geometry" />
        </mxCell>
        <mxCell id="xKjSnDcMdYcUZBjSQ_FL-7" value="Hobby" style="swimlane;fontStyle=0;align=center;verticalAlign=top;childLayout=stackLayout;horizontal=1;startSize=26;horizontalStack=0;resizeParent=1;resizeLast=0;collapsible=1;marginBottom=0;rounded=0;shadow=0;strokeWidth=1;" vertex="1" parent="WIyWlLk6GJQsqaUBKTNV-1">
          <mxGeometry x="49.5" y="491" width="183.5" height="188" as="geometry">
            <mxRectangle x="130" y="380" width="160" height="26" as="alternateBounds" />
          </mxGeometry>
        </mxCell>
        <mxCell id="xKjSnDcMdYcUZBjSQ_FL-8" value="- name : String&#xa;&#xa;- location : String&#xa;&#xa;- booking: ArrayList &lt;Booking&gt;&#xa;&#xa;- users : ArrayList&lt;User&gt;" style="text;align=left;verticalAlign=top;spacingLeft=4;spacingRight=4;overflow=hidden;rotatable=0;points=[[0,0.5],[1,0.5]];portConstraint=eastwest;" vertex="1" parent="xKjSnDcMdYcUZBjSQ_FL-7">
          <mxGeometry y="26" width="183.5" height="114" as="geometry" />
        </mxCell>
        <mxCell id="xKjSnDcMdYcUZBjSQ_FL-10" value="" style="line;html=1;strokeWidth=1;align=left;verticalAlign=middle;spacingTop=-1;spacingLeft=3;spacingRight=3;rotatable=0;labelPosition=right;points=[];portConstraint=eastwest;" vertex="1" parent="xKjSnDcMdYcUZBjSQ_FL-7">
          <mxGeometry y="140" width="183.5" height="8" as="geometry" />
        </mxCell>
        <mxCell id="xKjSnDcMdYcUZBjSQ_FL-37" value="+ getters &amp; setters" style="text;align=left;verticalAlign=top;spacingLeft=4;spacingRight=4;overflow=hidden;rotatable=0;points=[[0,0.5],[1,0.5]];portConstraint=eastwest;" vertex="1" parent="xKjSnDcMdYcUZBjSQ_FL-7">
          <mxGeometry y="148" width="183.5" height="26" as="geometry" />
        </mxCell>
        <mxCell id="xKjSnDcMdYcUZBjSQ_FL-12" value="Booking" style="swimlane;fontStyle=0;align=center;verticalAlign=top;childLayout=stackLayout;horizontal=1;startSize=26;horizontalStack=0;resizeParent=1;resizeLast=0;collapsible=1;marginBottom=0;rounded=0;shadow=0;strokeWidth=1;" vertex="1" parent="WIyWlLk6GJQsqaUBKTNV-1">
          <mxGeometry x="49.5" width="200" height="174" as="geometry">
            <mxRectangle x="130" y="380" width="160" height="26" as="alternateBounds" />
          </mxGeometry>
        </mxCell>
        <mxCell id="xKjSnDcMdYcUZBjSQ_FL-13" value="- time : String&#xa;&#xa;- users: ArrayList &lt;User&gt;&#xa;&#xa;- hobbies: Hobby&#xa;&#xa;- venues : Venue" style="text;align=left;verticalAlign=top;spacingLeft=4;spacingRight=4;overflow=hidden;rotatable=0;points=[[0,0.5],[1,0.5]];portConstraint=eastwest;" vertex="1" parent="xKjSnDcMdYcUZBjSQ_FL-12">
          <mxGeometry y="26" width="200" height="114" as="geometry" />
        </mxCell>
        <mxCell id="xKjSnDcMdYcUZBjSQ_FL-15" value="" style="line;html=1;strokeWidth=1;align=left;verticalAlign=middle;spacingTop=-1;spacingLeft=3;spacingRight=3;rotatable=0;labelPosition=right;points=[];portConstraint=eastwest;" vertex="1" parent="xKjSnDcMdYcUZBjSQ_FL-12">
          <mxGeometry y="140" width="200" height="8" as="geometry" />
        </mxCell>
        <mxCell id="xKjSnDcMdYcUZBjSQ_FL-94" value="+ getters &amp; setters" style="text;align=left;verticalAlign=top;spacingLeft=4;spacingRight=4;overflow=hidden;rotatable=0;points=[[0,0.5],[1,0.5]];portConstraint=eastwest;" vertex="1" parent="xKjSnDcMdYcUZBjSQ_FL-12">
          <mxGeometry y="148" width="200" height="26" as="geometry" />
        </mxCell>
        <mxCell id="xKjSnDcMdYcUZBjSQ_FL-30" value="userServices" style="swimlane;fontStyle=0;align=center;verticalAlign=top;childLayout=stackLayout;horizontal=1;startSize=26;horizontalStack=0;resizeParent=1;resizeLast=0;collapsible=1;marginBottom=0;rounded=0;shadow=0;strokeWidth=1;" vertex="1" parent="WIyWlLk6GJQsqaUBKTNV-1">
          <mxGeometry x="340" y="246" width="200" height="210" as="geometry">
            <mxRectangle x="130" y="380" width="160" height="26" as="alternateBounds" />
          </mxGeometry>
        </mxCell>
        <mxCell id="xKjSnDcMdYcUZBjSQ_FL-38" value="+ findUserById (long) : User&#xa;&#xa;+ findAllUser () : ArrayList &lt;User&gt;&#xa;&#xa;+ addUser (User) : void&#xa;&#xa;+ deleteUserById (long) : void&#xa;&#xa;+ updateUser (User, id) : void&#xa;&#xa;" style="text;align=left;verticalAlign=top;spacingLeft=4;spacingRight=4;overflow=hidden;rotatable=0;points=[[0,0.5],[1,0.5]];portConstraint=eastwest;fontFamily=Helvetica;fontSize=12;fontColor=default;" vertex="1" parent="xKjSnDcMdYcUZBjSQ_FL-30">
          <mxGeometry y="26" width="200" height="184" as="geometry" />
        </mxCell>
        <mxCell id="xKjSnDcMdYcUZBjSQ_FL-41" value="HobbieServices" style="swimlane;fontStyle=0;align=center;verticalAlign=top;childLayout=stackLayout;horizontal=1;startSize=26;horizontalStack=0;resizeParent=1;resizeLast=0;collapsible=1;marginBottom=0;rounded=0;shadow=0;strokeWidth=1;" vertex="1" parent="WIyWlLk6GJQsqaUBKTNV-1">
          <mxGeometry x="318" y="481.5" width="230" height="210" as="geometry">
            <mxRectangle x="130" y="380" width="160" height="26" as="alternateBounds" />
          </mxGeometry>
        </mxCell>
        <mxCell id="xKjSnDcMdYcUZBjSQ_FL-43" value="+ findHobbyById (long) : Hobby&#xa;&#xa;+ findAllHobbies () : ArrayList &lt;Hobby&gt;&#xa;&#xa;+ addHobby (Hobby) : void&#xa;&#xa;+ deleteHobbyById (long) : void&#xa;&#xa;+ updateHobby (Hobby, id) : void&#xa;&#xa;" style="text;align=left;verticalAlign=top;spacingLeft=4;spacingRight=4;overflow=hidden;rotatable=0;points=[[0,0.5],[1,0.5]];portConstraint=eastwest;" vertex="1" parent="xKjSnDcMdYcUZBjSQ_FL-41">
          <mxGeometry y="26" width="230" height="184" as="geometry" />
        </mxCell>
        <mxCell id="xKjSnDcMdYcUZBjSQ_FL-82" value="" style="endArrow=none;html=1;rounded=0;entryX=1;entryY=1;entryDx=0;entryDy=0;exitX=0.01;exitY=0.424;exitDx=0;exitDy=0;exitPerimeter=0;" edge="1" parent="WIyWlLk6GJQsqaUBKTNV-1" source="xKjSnDcMdYcUZBjSQ_FL-38">
          <mxGeometry width="50" height="50" relative="1" as="geometry">
            <mxPoint x="335" y="351.5399999999999" as="sourcePoint" />
            <mxPoint x="243" y="350.46" as="targetPoint" />
            <Array as="points" />
          </mxGeometry>
        </mxCell>
        <mxCell id="xKjSnDcMdYcUZBjSQ_FL-83" value="" style="endArrow=none;html=1;rounded=0;entryX=1.011;entryY=0.662;entryDx=0;entryDy=0;entryPerimeter=0;exitX=0;exitY=0.467;exitDx=0;exitDy=0;exitPerimeter=0;" edge="1" parent="WIyWlLk6GJQsqaUBKTNV-1" source="xKjSnDcMdYcUZBjSQ_FL-43" target="xKjSnDcMdYcUZBjSQ_FL-8">
          <mxGeometry width="50" height="50" relative="1" as="geometry">
            <mxPoint x="317" y="568" as="sourcePoint" />
            <mxPoint x="261" y="556" as="targetPoint" />
          </mxGeometry>
        </mxCell>
        <mxCell id="xKjSnDcMdYcUZBjSQ_FL-85" value="bookingServices" style="swimlane;fontStyle=0;align=center;verticalAlign=top;childLayout=stackLayout;horizontal=1;startSize=26;horizontalStack=0;resizeParent=1;resizeLast=0;collapsible=1;marginBottom=0;rounded=0;shadow=0;strokeWidth=1;" vertex="1" parent="WIyWlLk6GJQsqaUBKTNV-1">
          <mxGeometry x="326.5" y="-4" width="230" height="210" as="geometry">
            <mxRectangle x="130" y="380" width="160" height="26" as="alternateBounds" />
          </mxGeometry>
        </mxCell>
        <mxCell id="xKjSnDcMdYcUZBjSQ_FL-86" value="+ findBookingById (long) : Booking&#xa;&#xa;+ findAllBookings : ArrayList &lt;Booking&gt;&#xa;&#xa;+ addBooking (Booking) : void&#xa;&#xa;+ makeBooking (BookingDTO) : void&#xa;&#xa;+ deleteBookingById (long id) : void&#xa;&#xa;+ updateBooking (booking, id) : void&#xa;&#xa;" style="text;align=left;verticalAlign=top;spacingLeft=4;spacingRight=4;overflow=hidden;rotatable=0;points=[[0,0.5],[1,0.5]];portConstraint=eastwest;" vertex="1" parent="xKjSnDcMdYcUZBjSQ_FL-85">
          <mxGeometry y="26" width="230" height="184" as="geometry" />
        </mxCell>
        <mxCell id="xKjSnDcMdYcUZBjSQ_FL-87" value="" style="endArrow=none;html=1;rounded=0;exitX=0.991;exitY=0.625;exitDx=0;exitDy=0;exitPerimeter=0;" edge="1" parent="WIyWlLk6GJQsqaUBKTNV-1">
          <mxGeometry width="50" height="50" relative="1" as="geometry">
            <mxPoint x="249.5" y="107.05" as="sourcePoint" />
            <mxPoint x="329.5" y="107" as="targetPoint" />
          </mxGeometry>
        </mxCell>
        <mxCell id="xKjSnDcMdYcUZBjSQ_FL-88" value="VenueServices" style="swimlane;fontStyle=0;align=center;verticalAlign=top;childLayout=stackLayout;horizontal=1;startSize=26;horizontalStack=0;resizeParent=1;resizeLast=0;collapsible=1;marginBottom=0;rounded=0;shadow=0;strokeWidth=1;" vertex="1" parent="WIyWlLk6GJQsqaUBKTNV-1">
          <mxGeometry x="310" y="730" width="230" height="210" as="geometry">
            <mxRectangle x="130" y="380" width="160" height="26" as="alternateBounds" />
          </mxGeometry>
        </mxCell>
        <mxCell id="xKjSnDcMdYcUZBjSQ_FL-89" value="+ findVenueById (long) : Venue&#xa;&#xa;+ findAllVenue () : ArrayList &lt;Venue&gt;&#xa;&#xa;+ addVenue (Venue) : void&#xa;&#xa;+ deleteVenueById (long) : void&#xa;&#xa;+ updateVenue (Venue, id) : void&#xa;&#xa;" style="text;align=left;verticalAlign=top;spacingLeft=4;spacingRight=4;overflow=hidden;rotatable=0;points=[[0,0.5],[1,0.5]];portConstraint=eastwest;" vertex="1" parent="xKjSnDcMdYcUZBjSQ_FL-88">
          <mxGeometry y="26" width="230" height="184" as="geometry" />
        </mxCell>
        <mxCell id="xKjSnDcMdYcUZBjSQ_FL-91" value="" style="endArrow=none;html=1;rounded=0;" edge="1" parent="WIyWlLk6GJQsqaUBKTNV-1">
          <mxGeometry width="50" height="50" relative="1" as="geometry">
            <mxPoint x="310" y="830" as="sourcePoint" />
            <mxPoint x="270" y="830" as="targetPoint" />
          </mxGeometry>
        </mxCell>
        <mxCell id="xKjSnDcMdYcUZBjSQ_FL-102" value="BookingController" style="swimlane;fontStyle=0;align=center;verticalAlign=top;childLayout=stackLayout;horizontal=1;startSize=26;horizontalStack=0;resizeParent=1;resizeLast=0;collapsible=1;marginBottom=0;rounded=0;shadow=0;strokeWidth=1;" vertex="1" parent="WIyWlLk6GJQsqaUBKTNV-1">
          <mxGeometry x="596.5" y="-10" width="220" height="210" as="geometry">
            <mxRectangle x="130" y="380" width="160" height="26" as="alternateBounds" />
          </mxGeometry>
        </mxCell>
        <mxCell id="xKjSnDcMdYcUZBjSQ_FL-103" value="- @GetMapping (/bookings)&#xa;&#xa;- @GetMapping (/id)&#xa;&#xa;- @PostMapping &#xa;&#xa;- @DeleteMapping (/id)&#xa;&#xa;- @PatchMapping (/id)&#xa;&#xa;- @PutMapping (/id)" style="text;align=left;verticalAlign=top;spacingLeft=4;spacingRight=4;overflow=hidden;rotatable=0;points=[[0,0.5],[1,0.5]];portConstraint=eastwest;" vertex="1" parent="xKjSnDcMdYcUZBjSQ_FL-102">
          <mxGeometry y="26" width="220" height="164" as="geometry" />
        </mxCell>
        <mxCell id="xKjSnDcMdYcUZBjSQ_FL-107" value="" style="endArrow=none;html=1;rounded=0;entryX=-0.005;entryY=0.573;entryDx=0;entryDy=0;entryPerimeter=0;" edge="1" parent="WIyWlLk6GJQsqaUBKTNV-1" target="xKjSnDcMdYcUZBjSQ_FL-103">
          <mxGeometry width="50" height="50" relative="1" as="geometry">
            <mxPoint x="559.5" y="110" as="sourcePoint" />
            <mxPoint x="619.5" y="60" as="targetPoint" />
          </mxGeometry>
        </mxCell>
        <mxCell id="xKjSnDcMdYcUZBjSQ_FL-108" value="UserController" style="swimlane;fontStyle=0;align=center;verticalAlign=top;childLayout=stackLayout;horizontal=1;startSize=26;horizontalStack=0;resizeParent=1;resizeLast=0;collapsible=1;marginBottom=0;rounded=0;shadow=0;strokeWidth=1;" vertex="1" parent="WIyWlLk6GJQsqaUBKTNV-1">
          <mxGeometry x="600" y="248" width="220" height="210" as="geometry">
            <mxRectangle x="130" y="380" width="160" height="26" as="alternateBounds" />
          </mxGeometry>
        </mxCell>
        <mxCell id="xKjSnDcMdYcUZBjSQ_FL-109" value="- @GetMapping (/users)&#xa;&#xa;- @GetMapping (/id)&#xa;&#xa;- @PostMapping &#xa;&#xa;- @DeleteMapping (/id)&#xa;&#xa;- @PatchMapping (/id)&#xa;&#xa;- @PutMapping (/id)" style="text;align=left;verticalAlign=top;spacingLeft=4;spacingRight=4;overflow=hidden;rotatable=0;points=[[0,0.5],[1,0.5]];portConstraint=eastwest;" vertex="1" parent="xKjSnDcMdYcUZBjSQ_FL-108">
          <mxGeometry y="26" width="220" height="164" as="geometry" />
        </mxCell>
        <mxCell id="xKjSnDcMdYcUZBjSQ_FL-110" value="VenueController" style="swimlane;fontStyle=0;align=center;verticalAlign=top;childLayout=stackLayout;horizontal=1;startSize=26;horizontalStack=0;resizeParent=1;resizeLast=0;collapsible=1;marginBottom=0;rounded=0;shadow=0;strokeWidth=1;" vertex="1" parent="WIyWlLk6GJQsqaUBKTNV-1">
          <mxGeometry x="590" y="730" width="220" height="210" as="geometry">
            <mxRectangle x="130" y="380" width="160" height="26" as="alternateBounds" />
          </mxGeometry>
        </mxCell>
        <mxCell id="xKjSnDcMdYcUZBjSQ_FL-115" value="" style="endArrow=none;html=1;rounded=0;entryX=0.005;entryY=0.396;entryDx=0;entryDy=0;entryPerimeter=0;" edge="1" parent="xKjSnDcMdYcUZBjSQ_FL-110" target="xKjSnDcMdYcUZBjSQ_FL-111">
          <mxGeometry width="50" height="50" relative="1" as="geometry">
            <mxPoint x="-53" y="92.5" as="sourcePoint" />
            <mxPoint x="17" y="92.5" as="targetPoint" />
          </mxGeometry>
        </mxCell>
        <mxCell id="xKjSnDcMdYcUZBjSQ_FL-111" value="- @GetMapping (/venues)&#xa;&#xa;- @GetMapping (/id)&#xa;&#xa;- @PostMapping &#xa;&#xa;- @DeleteMapping (/id)&#xa;&#xa;- @PatchMapping (/id)&#xa;&#xa;- @PutMapping (/id)" style="text;align=left;verticalAlign=top;spacingLeft=4;spacingRight=4;overflow=hidden;rotatable=0;points=[[0,0.5],[1,0.5]];portConstraint=eastwest;" vertex="1" parent="xKjSnDcMdYcUZBjSQ_FL-110">
          <mxGeometry y="26" width="220" height="164" as="geometry" />
        </mxCell>
        <mxCell id="xKjSnDcMdYcUZBjSQ_FL-112" value="HobbyController" style="swimlane;fontStyle=0;align=center;verticalAlign=top;childLayout=stackLayout;horizontal=1;startSize=26;horizontalStack=0;resizeParent=1;resizeLast=0;collapsible=1;marginBottom=0;rounded=0;shadow=0;strokeWidth=1;" vertex="1" parent="WIyWlLk6GJQsqaUBKTNV-1">
          <mxGeometry x="600" y="491.5" width="220" height="210" as="geometry">
            <mxRectangle x="130" y="380" width="160" height="26" as="alternateBounds" />
          </mxGeometry>
        </mxCell>
        <mxCell id="xKjSnDcMdYcUZBjSQ_FL-113" value="- @GetMapping (/hobbies)&#xa;&#xa;- @GetMapping (/id)&#xa;&#xa;- @PostMapping &#xa;&#xa;- @DeleteMapping (/id)&#xa;&#xa;- @PatchMapping (/id)&#xa;&#xa;- @PutMapping (/id)" style="text;align=left;verticalAlign=top;spacingLeft=4;spacingRight=4;overflow=hidden;rotatable=0;points=[[0,0.5],[1,0.5]];portConstraint=eastwest;" vertex="1" parent="xKjSnDcMdYcUZBjSQ_FL-112">
          <mxGeometry y="26" width="220" height="164" as="geometry" />
        </mxCell>
        <mxCell id="xKjSnDcMdYcUZBjSQ_FL-116" value="" style="endArrow=none;html=1;rounded=0;" edge="1" parent="WIyWlLk6GJQsqaUBKTNV-1">
          <mxGeometry width="50" height="50" relative="1" as="geometry">
            <mxPoint x="548" y="587.25" as="sourcePoint" />
            <mxPoint x="600" y="586" as="targetPoint" />
          </mxGeometry>
        </mxCell>
        <mxCell id="xKjSnDcMdYcUZBjSQ_FL-117" value="" style="endArrow=none;html=1;rounded=0;" edge="1" parent="WIyWlLk6GJQsqaUBKTNV-1">
          <mxGeometry width="50" height="50" relative="1" as="geometry">
            <mxPoint x="540" y="353.75" as="sourcePoint" />
            <mxPoint x="600" y="354" as="targetPoint" />
          </mxGeometry>
        </mxCell>
      </root>
    </mxGraphModel>
  </diagram>
</mxfile>
